<svg xmlns="http://www.w3.org/2000/svg" width="1080" height="430" viewBox="0 0 1080 430">
<rect width="100%" height="100%" fill="#fff"/>
<style>text{font-family:Arial,sans-serif;fill:#202124}.title{font-size:20px;font-weight:700}.panel{font-size:12px;font-weight:700}.axis{font-size:9px}.note{font-size:10px;fill:#5f6368}</style>
<text x="20" y="28" class="title">MKG-Y Resolution vs Support, Alpha Instability, and Negative Transfer</text>
<text x="55" y="70" class="panel">Support coverage</text><polyline points="55.0,85.0 112.0,85.0 169.0,93.0 226.0,93.0 283.0,171.5 340.0,85.0" fill="none" stroke="#376795" stroke-width="2"/>
<circle cx="55.0" cy="85.0" r="3" fill="#376795"/>
<text x="55.0" y="346" text-anchor="middle" class="axis">Global</text>
<circle cx="112.0" cy="85.0" r="3" fill="#376795"/>
<text x="112.0" y="346" text-anchor="middle" class="axis">Direction</text>
<circle cx="169.0" cy="93.0" r="3" fill="#376795"/>
<text x="169.0" y="346" text-anchor="middle" class="axis">Relation</text>
<circle cx="226.0" cy="93.0" r="3" fill="#376795"/>
<text x="226.0" y="346" text-anchor="middle" class="axis">Relation×Direction</text>
<circle cx="283.0" cy="171.5" r="3" fill="#376795"/>
<text x="283.0" y="346" text-anchor="middle" class="axis">Context</text>
<circle cx="340.0" cy="85.0" r="3" fill="#376795"/>
<text x="340.0" y="346" text-anchor="middle" class="axis">Query</text>
<text x="405" y="70" class="panel">Group alpha foldwise MAD</text><polyline points="405.0,330.0 462.0,85.0 519.0,282.4 576.0,183.9 633.0,195.8" fill="none" stroke="#376795" stroke-width="2"/>
<circle cx="405.0" cy="330.0" r="3" fill="#376795"/>
<text x="405.0" y="346" text-anchor="middle" class="axis">Global</text>
<circle cx="462.0" cy="85.0" r="3" fill="#376795"/>
<text x="462.0" y="346" text-anchor="middle" class="axis">Direction</text>
<circle cx="519.0" cy="282.4" r="3" fill="#376795"/>
<text x="519.0" y="346" text-anchor="middle" class="axis">Relation</text>
<circle cx="576.0" cy="183.9" r="3" fill="#376795"/>
<text x="576.0" y="346" text-anchor="middle" class="axis">Relation×Direction</text>
<circle cx="633.0" cy="195.8" r="3" fill="#376795"/>
<text x="633.0" y="346" text-anchor="middle" class="axis">Context</text>
<text x="690.0" y="346" text-anchor="middle" class="axis">Query</text>
<text x="755" y="70" class="panel">Negative transfer ratio</text><polyline points="755.0,330.0 812.0,134.0 869.0,118.1 926.0,85.0 983.0,146.4 1040.0,190.1" fill="none" stroke="#376795" stroke-width="2"/>
<circle cx="755.0" cy="330.0" r="3" fill="#376795"/>
<text x="755.0" y="346" text-anchor="middle" class="axis">Global</text>
<circle cx="812.0" cy="134.0" r="3" fill="#376795"/>
<text x="812.0" y="346" text-anchor="middle" class="axis">Direction</text>
<circle cx="869.0" cy="118.1" r="3" fill="#376795"/>
<text x="869.0" y="346" text-anchor="middle" class="axis">Relation</text>
<circle cx="926.0" cy="85.0" r="3" fill="#376795"/>
<text x="926.0" y="346" text-anchor="middle" class="axis">Relation×Direction</text>
<circle cx="983.0" cy="146.4" r="3" fill="#376795"/>
<text x="983.0" y="346" text-anchor="middle" class="axis">Context</text>
<circle cx="1040.0" cy="190.1" r="3" fill="#376795"/>
<text x="1040.0" y="346" text-anchor="middle" class="axis">Query</text>
</svg>
