<svg xmlns="http://www.w3.org/2000/svg" width="1260" height="560" viewBox="0 0 1260 560">
<rect width="100%" height="100%" fill="white"/>
<text x="630.0" y="28" text-anchor="middle" font-family="Arial" font-size="18">Phase 4A top-decile actual advantage</text>
<line x1="80" y1="280.0" x2="1180" y2="280.0" stroke="#222"/>
<rect x="81.00" y="280.00" width="34.67" height="45.86" fill="#777777"/>
<rect x="117.67" y="280.00" width="34.67" height="33.11" fill="#377eb8"/>
<rect x="154.33" y="280.00" width="34.67" height="48.78" fill="#ff7f00"/>
<rect x="191.00" y="280.00" width="34.67" height="97.39" fill="#4daf4a"/>
<rect x="227.67" y="280.00" width="34.67" height="98.92" fill="#984ea3"/>
<rect x="264.33" y="231.16" width="34.67" height="48.84" fill="#777777"/>
<rect x="301.00" y="238.86" width="34.67" height="41.14" fill="#377eb8"/>
<rect x="337.67" y="255.98" width="34.67" height="24.02" fill="#ff7f00"/>
<rect x="374.33" y="263.97" width="34.67" height="16.03" fill="#4daf4a"/>
<rect x="411.00" y="243.19" width="34.67" height="36.81" fill="#984ea3"/>
<rect x="447.67" y="144.91" width="34.67" height="135.09" fill="#777777"/>
<rect x="484.33" y="80.00" width="34.67" height="200.00" fill="#377eb8"/>
<rect x="521.00" y="190.49" width="34.67" height="89.51" fill="#ff7f00"/>
<rect x="557.67" y="213.90" width="34.67" height="66.10" fill="#4daf4a"/>
<rect x="594.33" y="182.37" width="34.67" height="97.63" fill="#984ea3"/>
<rect x="631.00" y="172.84" width="34.67" height="107.16" fill="#777777"/>
<rect x="667.67" y="108.50" width="34.67" height="171.50" fill="#377eb8"/>
<rect x="704.33" y="173.34" width="34.67" height="106.66" fill="#ff7f00"/>
<rect x="741.00" y="113.18" width="34.67" height="166.82" fill="#4daf4a"/>
<rect x="777.67" y="263.85" width="34.67" height="16.15" fill="#984ea3"/>
<rect x="814.33" y="147.94" width="34.67" height="132.06" fill="#777777"/>
<rect x="851.00" y="165.91" width="34.67" height="114.09" fill="#377eb8"/>
<rect x="887.67" y="104.30" width="34.67" height="175.70" fill="#ff7f00"/>
<rect x="924.33" y="183.11" width="34.67" height="96.89" fill="#4daf4a"/>
<rect x="961.00" y="162.92" width="34.67" height="117.08" fill="#984ea3"/>
<rect x="997.67" y="280.00" width="34.67" height="56.47" fill="#777777"/>
<rect x="1034.33" y="280.00" width="34.67" height="7.36" fill="#377eb8"/>
<rect x="1071.00" y="280.00" width="34.67" height="54.77" fill="#ff7f00"/>
<rect x="1107.67" y="280.00" width="34.67" height="63.33" fill="#4daf4a"/>
<rect x="1144.33" y="280.00" width="34.67" height="36.46" fill="#984ea3"/>
</svg>