<svg xmlns="http://www.w3.org/2000/svg" width="900" height="430" viewBox="0 0 900 430">
<rect width="100%" height="100%" fill="#fff"/>
<style>text{font-family:Arial,sans-serif;fill:#202124}.title{font-size:20px;font-weight:700}.panel{font-size:12px;font-weight:700}.axis{font-size:9px}.note{font-size:10px;fill:#5f6368}</style>
<text x="20" y="28" class="title">Highlighted Pair-Specific Resolution Curves</text>
<text x="70" y="78" class="panel">MKG-W / M-Hyper+NativE</text>
<line x1="70" y1="323.2" x2="420" y2="323.2" stroke="#9aa0a6"/>
<polyline points="70.0,323.2 140.0,315.9 210.0,271.4 280.0,267.1 350.0,268.9 420.0,236.2" fill="none" stroke="#376795" stroke-width="2" stroke-dasharray=""/>
<polyline points="70.0,323.2 140.0,311.1 210.0,235.5 280.0,210.0 350.0,179.3 420.0,90.0" fill="none" stroke="#d1495b" stroke-width="2" stroke-dasharray="5 3"/>
<text x="70.0" y="350" text-anchor="middle" class="axis">Global</text>
<text x="140.0" y="350" text-anchor="middle" class="axis">Direction</text>
<text x="210.0" y="350" text-anchor="middle" class="axis">Relation</text>
<text x="280.0" y="350" text-anchor="middle" class="axis">Relation×Direction</text>
<text x="350.0" y="350" text-anchor="middle" class="axis">Context</text>
<text x="420.0" y="350" text-anchor="middle" class="axis">Query</text>
<text x="500" y="78" class="panel">MKG-W / NativE+AdaMF</text>
<line x1="500" y1="308.5" x2="850" y2="308.5" stroke="#9aa0a6"/>
<polyline points="500.0,308.5 570.0,308.5 640.0,301.2 710.0,325.0 780.0,308.6 850.0,280.9" fill="none" stroke="#376795" stroke-width="2" stroke-dasharray=""/>
<polyline points="500.0,308.5 570.0,308.5 640.0,250.1 710.0,221.6 780.0,290.3 850.0,90.0" fill="none" stroke="#d1495b" stroke-width="2" stroke-dasharray="5 3"/>
<text x="500.0" y="350" text-anchor="middle" class="axis">Global</text>
<text x="570.0" y="350" text-anchor="middle" class="axis">Direction</text>
<text x="640.0" y="350" text-anchor="middle" class="axis">Relation</text>
<text x="710.0" y="350" text-anchor="middle" class="axis">Relation×Direction</text>
<text x="780.0" y="350" text-anchor="middle" class="axis">Context</text>
<text x="850.0" y="350" text-anchor="middle" class="axis">Query</text>
</svg>
