<svg xmlns="http://www.w3.org/2000/svg" width="1040" height="650" viewBox="0 0 1040 650">
<rect width="100%" height="100%" fill="#ffffff"/>
<text x="32" y="34" font-family="Arial" font-size="18" font-weight="bold" fill="#222">Cross-Dataset Complementarity Evidence Chain</text>
<rect x="255" y="82" width="745" height="503" fill="#fff" stroke="#ddd"/>
<line x1="279.3" y1="82" x2="279.3" y2="585" stroke="#ececec"/>
<text x="279.3" y="607.0" font-family="Arial" font-size="10" text-anchor="middle" fill="#333" font-weight="normal">0.00</text>
<line x1="400.9" y1="82" x2="400.9" y2="585" stroke="#ececec"/>
<text x="400.9" y="607.0" font-family="Arial" font-size="10" text-anchor="middle" fill="#333" font-weight="normal">0.01</text>
<line x1="522.5" y1="82" x2="522.5" y2="585" stroke="#ececec"/>
<text x="522.5" y="607.0" font-family="Arial" font-size="10" text-anchor="middle" fill="#333" font-weight="normal">0.02</text>
<line x1="644.1" y1="82" x2="644.1" y2="585" stroke="#ececec"/>
<text x="644.1" y="607.0" font-family="Arial" font-size="10" text-anchor="middle" fill="#333" font-weight="normal">0.03</text>
<line x1="765.8" y1="82" x2="765.8" y2="585" stroke="#ececec"/>
<text x="765.8" y="607.0" font-family="Arial" font-size="10" text-anchor="middle" fill="#333" font-weight="normal">0.04</text>
<line x1="887.4" y1="82" x2="887.4" y2="585" stroke="#ececec"/>
<text x="887.4" y="607.0" font-family="Arial" font-size="10" text-anchor="middle" fill="#333" font-weight="normal">0.05</text>
<line x1="279.3" y1="82" x2="279.3" y2="585" stroke="#777" stroke-width="1.2"/>
<text x="243.0" y="114.0" font-family="Arial" font-size="10" text-anchor="end" fill="#333" font-weight="normal">MKG-W / M-Hyper+NativE</text>
<polyline points="846.3,110.0 628.1,110.0 456.2,110.0 368.6,110.0" fill="none" stroke="#b9b9b9" stroke-width="1.5"/>
<circle cx="846.3" cy="110.0" r="5.0" fill="#213547" stroke="#fff" stroke-width="1"/>
<circle cx="628.1" cy="110.0" r="4.4" fill="#28778e" stroke="#fff" stroke-width="1"/>
<circle cx="456.2" cy="110.0" r="4.0" fill="#d49a2a" stroke="#fff" stroke-width="1"/>
<circle cx="368.6" cy="110.0" r="4.0" fill="#c45d3c" stroke="#fff" stroke-width="1"/>
<text x="243.0" y="167.0" font-family="Arial" font-size="10" text-anchor="end" fill="#333" font-weight="normal">MKG-W / M-Hyper+AdaMF</text>
<polyline points="776.0,163.0 622.1,163.0 428.5,163.0 351.2,163.0" fill="none" stroke="#b9b9b9" stroke-width="1.5"/>
<circle cx="776.0" cy="163.0" r="5.0" fill="#213547" stroke="#fff" stroke-width="1"/>
<circle cx="622.1" cy="163.0" r="4.4" fill="#28778e" stroke="#fff" stroke-width="1"/>
<circle cx="428.5" cy="163.0" r="4.0" fill="#d49a2a" stroke="#fff" stroke-width="1"/>
<circle cx="351.2" cy="163.0" r="4.0" fill="#c45d3c" stroke="#fff" stroke-width="1"/>
<text x="243.0" y="220.0" font-family="Arial" font-size="10" text-anchor="end" fill="#333" font-weight="normal">MKG-W / NativE+AdaMF</text>
<polyline points="858.7,216.0 555.9,216.0 364.7,216.0 292.0,216.0" fill="none" stroke="#b9b9b9" stroke-width="1.5"/>
<circle cx="858.7" cy="216.0" r="5.0" fill="#213547" stroke="#fff" stroke-width="1"/>
<circle cx="555.9" cy="216.0" r="4.4" fill="#28778e" stroke="#fff" stroke-width="1"/>
<circle cx="364.7" cy="216.0" r="4.0" fill="#d49a2a" stroke="#fff" stroke-width="1"/>
<circle cx="292.0" cy="216.0" r="4.0" fill="#c45d3c" stroke="#fff" stroke-width="1"/>
<line x1="30" y1="243.0" x2="1000" y2="243.0" stroke="#d6d6d6"/>
<text x="243.0" y="273.0" font-family="Arial" font-size="10" text-anchor="end" fill="#333" font-weight="normal">DB15K / M-Hyper+NativE</text>
<polyline points="882.2,269.0 689.5,269.0 430.2,269.0 305.2,269.0" fill="none" stroke="#b9b9b9" stroke-width="1.5"/>
<circle cx="882.2" cy="269.0" r="5.0" fill="#213547" stroke="#fff" stroke-width="1"/>
<circle cx="689.5" cy="269.0" r="4.4" fill="#28778e" stroke="#fff" stroke-width="1"/>
<circle cx="430.2" cy="269.0" r="4.0" fill="#d49a2a" stroke="#fff" stroke-width="1"/>
<circle cx="305.2" cy="269.0" r="4.0" fill="#c45d3c" stroke="#fff" stroke-width="1"/>
<text x="243.0" y="326.0" font-family="Arial" font-size="10" text-anchor="end" fill="#333" font-weight="normal">DB15K / M-Hyper+AdaMF</text>
<polyline points="832.1,322.0 642.7,322.0 392.7,322.0 290.6,322.0" fill="none" stroke="#b9b9b9" stroke-width="1.5"/>
<circle cx="832.1" cy="322.0" r="5.0" fill="#213547" stroke="#fff" stroke-width="1"/>
<circle cx="642.7" cy="322.0" r="4.4" fill="#28778e" stroke="#fff" stroke-width="1"/>
<circle cx="392.7" cy="322.0" r="4.0" fill="#d49a2a" stroke="#fff" stroke-width="1"/>
<circle cx="290.6" cy="322.0" r="4.0" fill="#c45d3c" stroke="#fff" stroke-width="1"/>
<text x="243.0" y="379.0" font-family="Arial" font-size="10" text-anchor="end" fill="#333" font-weight="normal">DB15K / NativE+AdaMF</text>
<polyline points="979.1,375.0 651.1,375.0 334.7,375.0 298.3,375.0" fill="none" stroke="#b9b9b9" stroke-width="1.5"/>
<circle cx="979.1" cy="375.0" r="5.0" fill="#213547" stroke="#fff" stroke-width="1"/>
<circle cx="651.1" cy="375.0" r="4.4" fill="#28778e" stroke="#fff" stroke-width="1"/>
<circle cx="334.7" cy="375.0" r="4.0" fill="#d49a2a" stroke="#fff" stroke-width="1"/>
<circle cx="298.3" cy="375.0" r="4.0" fill="#c45d3c" stroke="#fff" stroke-width="1"/>
<line x1="30" y1="402.0" x2="1000" y2="402.0" stroke="#d6d6d6"/>
<text x="243.0" y="432.0" font-family="Arial" font-size="10" text-anchor="end" fill="#333" font-weight="normal">MKG-Y / M-Hyper+NativE</text>
<polyline points="727.4,428.0 517.8,428.0 393.4,428.0 324.4,428.0" fill="none" stroke="#b9b9b9" stroke-width="1.5"/>
<circle cx="727.4" cy="428.0" r="5.0" fill="#213547" stroke="#fff" stroke-width="1"/>
<circle cx="517.8" cy="428.0" r="4.4" fill="#28778e" stroke="#fff" stroke-width="1"/>
<circle cx="393.4" cy="428.0" r="4.0" fill="#d49a2a" stroke="#fff" stroke-width="1"/>
<circle cx="324.4" cy="428.0" r="4.0" fill="#c45d3c" stroke="#fff" stroke-width="1"/>
<text x="243.0" y="485.0" font-family="Arial" font-size="10" text-anchor="end" fill="#333" font-weight="normal">MKG-Y / M-Hyper+AdaMF</text>
<polyline points="815.2,481.0 571.9,481.0 423.4,481.0 361.7,481.0" fill="none" stroke="#b9b9b9" stroke-width="1.5"/>
<circle cx="815.2" cy="481.0" r="5.0" fill="#213547" stroke="#fff" stroke-width="1"/>
<circle cx="571.9" cy="481.0" r="4.4" fill="#28778e" stroke="#fff" stroke-width="1"/>
<circle cx="423.4" cy="481.0" r="4.0" fill="#d49a2a" stroke="#fff" stroke-width="1"/>
<circle cx="361.7" cy="481.0" r="4.0" fill="#c45d3c" stroke="#fff" stroke-width="1"/>
<text x="243.0" y="538.0" font-family="Arial" font-size="10" text-anchor="end" fill="#333" font-weight="normal">MKG-Y / NativE+AdaMF</text>
<polyline points="739.5,534.0 456.2,534.0 326.7,534.0 274.0,534.0" fill="none" stroke="#b9b9b9" stroke-width="1.5"/>
<circle cx="739.5" cy="534.0" r="5.0" fill="#213547" stroke="#fff" stroke-width="1"/>
<circle cx="456.2" cy="534.0" r="4.4" fill="#28778e" stroke="#fff" stroke-width="1"/>
<circle cx="326.7" cy="534.0" r="4.0" fill="#d49a2a" stroke="#fff" stroke-width="1"/>
<circle cx="274.0" cy="534.0" r="4.0" fill="#c45d3c" stroke="#fff" stroke-width="1"/>
<circle cx="275" cy="620" r="4" fill="#213547"/>
<text x="285.0" y="624.0" font-family="Arial" font-size="10" text-anchor="start" fill="#333" font-weight="normal">Raw</text>
<circle cx="430" cy="620" r="4" fill="#28778e"/>
<text x="440.0" y="624.0" font-family="Arial" font-size="10" text-anchor="start" fill="#333" font-weight="normal">2-of-3 stable</text>
<circle cx="585" cy="620" r="4" fill="#d49a2a"/>
<text x="595.0" y="624.0" font-family="Arial" font-size="10" text-anchor="start" fill="#333" font-weight="normal">LOSO</text>
<circle cx="740" cy="620" r="4" fill="#c45d3c"/>
<text x="750.0" y="624.0" font-family="Arial" font-size="10" text-anchor="start" fill="#333" font-weight="normal">Frozen X4 OOF</text>
<text x="627.5" y="610.0" font-family="Arial" font-size="11" text-anchor="middle" fill="#333" font-weight="normal">MRR gain vs Global</text>
</svg>
